<?xml version="1.0" encoding="UTF-8" standalone="no"?>
<!DOCTYPE svg PUBLIC "-//W3C//DTD SVG 1.1//EN" "http://www.w3.org/Graphics/SVG/1.1/DTD/svg11.dtd">
<!-- Generated by graphviz version 2.40.1 (20161225.0304)
 -->
<!-- Title: D Pages: 1 -->
<svg width="2077pt" height="426pt" viewBox="0.00 0.00 2077.00 426.40" xmlns="http://www.w3.org/2000/svg" xmlns:xlink="http://www.w3.org/1999/xlink">
<g id="graph0" class="graph" transform="scale(1 1) rotate(0) translate(4 422.4)">
<title>D</title>
<polygon fill="#ffffff" stroke="transparent" points="-4,4 -4,-422.4 2073,-422.4 2073,4 -4,4"/>
<g id="clust1" class="cluster">
<title>cluster_testing</title>
<polygon fill="none" stroke="#000000" points="577,-80 577,-333.6 1485,-333.6 1485,-80 577,-80"/>
<text text-anchor="middle" x="1031" y="-317" font-family="Times,serif" font-size="14.00" fill="#000000">Tests</text>
</g>
<g id="clust2" class="cluster">
<title>cluster_independent</title>
<polygon fill="none" stroke="#000000" points="1197,-152 1197,-300.8 1477,-300.8 1477,-152 1197,-152"/>
<text text-anchor="middle" x="1337" y="-284.2" font-family="Times,serif" font-size="14.00" fill="#000000">Independent Hierarchy</text>
</g>
<g id="clust3" class="cluster">
<title>cluster_external</title>
<polygon fill="none" stroke="#000000" points="1493,-8 1493,-300.8 2061,-300.8 2061,-8 1493,-8"/>
<text text-anchor="middle" x="1777" y="-284.2" font-family="Times,serif" font-size="14.00" fill="#000000">External Hierarchies</text>
</g>
<g id="clust4" class="cluster">
<title>cluster_production</title>
<polygon fill="none" stroke="#000000" points="8,-152 8,-410.4 569,-410.4 569,-152 8,-152"/>
<text text-anchor="middle" x="288.5" y="-393.8" font-family="Times,serif" font-size="14.00" fill="#000000">Production</text>
</g>
<!-- CDEODamaschkestr11OUArbeitszimmerCNDama11LabIntermediaryTestCA -->
<g id="node1" class="node">
<title>CDEODamaschkestr11OUArbeitszimmerCNDama11LabIntermediaryTestCA</title>
<polygon fill="none" stroke="#000000" points="887.5366,-268 672.4634,-268 672.4634,-232 887.5366,-232 887.5366,-268"/>
<text text-anchor="middle" x="780" y="-245.8" font-family="Times,serif" font-size="14.00" fill="#000000">Dama11 Lab Intermediary Test CA</text>
</g>
<!-- CDEODamaschkestr11OUArbeitszimmerCNTest1LabIntermediaryCA -->
<g id="node2" class="node">
<title>CDEODamaschkestr11OUArbeitszimmerCNTest1LabIntermediaryCA</title>
<polygon fill="none" stroke="#000000" points="756.6102,-196 585.3898,-196 585.3898,-160 756.6102,-160 756.6102,-196"/>
<text text-anchor="middle" x="671" y="-173.8" font-family="Times,serif" font-size="14.00" fill="#000000">Test1 Lab Intermediary CA</text>
</g>
<!-- CDEODamaschkestr11OUArbeitszimmerCNDama11LabIntermediaryTestCA&#45;&gt;CDEODamaschkestr11OUArbeitszimmerCNTest1LabIntermediaryCA -->
<g id="edge16" class="edge">
<title>CDEODamaschkestr11OUArbeitszimmerCNDama11LabIntermediaryTestCA-&gt;CDEODamaschkestr11OUArbeitszimmerCNTest1LabIntermediaryCA</title>
<path fill="none" stroke="#000000" d="M752.4947,-231.8314C738.682,-222.7074 721.7744,-211.539 706.9471,-201.7449"/>
<polygon fill="#000000" stroke="#000000" points="708.7696,-198.7541 698.4965,-196.1628 704.9114,-204.5949 708.7696,-198.7541"/>
</g>
<!-- CDEODamaschkestr11OUArbeitszimmerCNDama11LabIdentityTestCA -->
<g id="node3" class="node">
<title>CDEODamaschkestr11OUArbeitszimmerCNDama11LabIdentityTestCA</title>
<polygon fill="none" stroke="#000000" points="961.2864,-196 774.7136,-196 774.7136,-160 961.2864,-160 961.2864,-196"/>
<text text-anchor="middle" x="868" y="-173.8" font-family="Times,serif" font-size="14.00" fill="#000000">Dama11 Lab Identity Test CA</text>
</g>
<!-- CDEODamaschkestr11OUArbeitszimmerCNDama11LabIntermediaryTestCA&#45;&gt;CDEODamaschkestr11OUArbeitszimmerCNDama11LabIdentityTestCA -->
<g id="edge17" class="edge">
<title>CDEODamaschkestr11OUArbeitszimmerCNDama11LabIntermediaryTestCA-&gt;CDEODamaschkestr11OUArbeitszimmerCNDama11LabIdentityTestCA</title>
<path fill="none" stroke="#000000" d="M802.2061,-231.8314C813.045,-222.9632 826.2444,-212.1637 837.9678,-202.5718"/>
<polygon fill="#000000" stroke="#000000" points="840.2777,-205.2041 845.801,-196.1628 835.845,-199.7864 840.2777,-205.2041"/>
</g>
<!-- CDEODamaschkestr11OUArbeitszimmerCNDama11LabComponentTestCA -->
<g id="node4" class="node">
<title>CDEODamaschkestr11OUArbeitszimmerCNDama11LabComponentTestCA</title>
<polygon fill="none" stroke="#000000" points="1187.0716,-196 978.9284,-196 978.9284,-160 1187.0716,-160 1187.0716,-196"/>
<text text-anchor="middle" x="1083" y="-173.8" font-family="Times,serif" font-size="14.00" fill="#000000">Dama11 Lab Component Test CA</text>
</g>
<!-- CDEODamaschkestr11OUArbeitszimmerCNDama11LabIntermediaryTestCA&#45;&gt;CDEODamaschkestr11OUArbeitszimmerCNDama11LabComponentTestCA -->
<g id="edge18" class="edge">
<title>CDEODamaschkestr11OUArbeitszimmerCNDama11LabIntermediaryTestCA-&gt;CDEODamaschkestr11OUArbeitszimmerCNDama11LabComponentTestCA</title>
<path fill="none" stroke="#000000" d="M856.0686,-231.9243C899.0127,-221.7198 952.8131,-208.9355 997.25,-198.3762"/>
<polygon fill="#000000" stroke="#000000" points="998.243,-201.7378 1007.163,-196.0207 996.6247,-194.9274 998.243,-201.7378"/>
</g>
<!-- CDEODamaschkestr11OUArbeitszimmerCNTest1LabIdentityCA -->
<g id="node5" class="node">
<title>CDEODamaschkestr11OUArbeitszimmerCNTest1LabIdentityCA</title>
<polygon fill="none" stroke="#000000" points="734.3603,-124 591.6397,-124 591.6397,-88 734.3603,-88 734.3603,-124"/>
<text text-anchor="middle" x="663" y="-101.8" font-family="Times,serif" font-size="14.00" fill="#000000">Test1 Lab Identity CA</text>
</g>
<!-- CDEODamaschkestr11OUArbeitszimmerCNTest1LabIntermediaryCA&#45;&gt;CDEODamaschkestr11OUArbeitszimmerCNTest1LabIdentityCA -->
<g id="edge19" class="edge">
<title>CDEODamaschkestr11OUArbeitszimmerCNTest1LabIntermediaryCA-&gt;CDEODamaschkestr11OUArbeitszimmerCNTest1LabIdentityCA</title>
<path fill="none" stroke="#000000" d="M668.9813,-159.8314C668.1257,-152.131 667.1083,-142.9743 666.1574,-134.4166"/>
<polygon fill="#000000" stroke="#000000" points="669.6289,-133.9656 665.0459,-124.4133 662.6717,-134.7386 669.6289,-133.9656"/>
</g>
<!-- CDEODamaschkestr11OUArbeitszimmerCNTest1LabComponentCA -->
<g id="node6" class="node">
<title>CDEODamaschkestr11OUArbeitszimmerCNTest1LabComponentCA</title>
<polygon fill="none" stroke="#000000" points="916.1453,-124 751.8547,-124 751.8547,-88 916.1453,-88 916.1453,-124"/>
<text text-anchor="middle" x="834" y="-101.8" font-family="Times,serif" font-size="14.00" fill="#000000">Test1 Lab Component CA</text>
</g>
<!-- CDEODamaschkestr11OUArbeitszimmerCNTest1LabIntermediaryCA&#45;&gt;CDEODamaschkestr11OUArbeitszimmerCNTest1LabComponentCA -->
<g id="edge20" class="edge">
<title>CDEODamaschkestr11OUArbeitszimmerCNTest1LabIntermediaryCA-&gt;CDEODamaschkestr11OUArbeitszimmerCNTest1LabComponentCA</title>
<path fill="none" stroke="#000000" d="M712.1318,-159.8314C733.9321,-150.2018 760.8878,-138.295 783.9004,-128.1299"/>
<polygon fill="#000000" stroke="#000000" points="785.4308,-131.2802 793.164,-124.038 782.6024,-124.877 785.4308,-131.2802"/>
</g>
<!-- CDEODamaschkestr11OUArbeitszimmerCNDama11LabIndependentTestIntermediary -->
<g id="node7" class="node">
<title>CDEODamaschkestr11OUArbeitszimmerCNDama11LabIndependentTestIntermediary</title>
<polygon fill="none" stroke="#000000" points="1469.2885,-196 1204.7115,-196 1204.7115,-160 1469.2885,-160 1469.2885,-196"/>
<text text-anchor="middle" x="1337" y="-173.8" font-family="Times,serif" font-size="14.00" fill="#000000">Dama11 Lab Independent Test Intermediary</text>
</g>
<!-- CDEODamaschkestr11OUArbeitszimmerCNDama11LabIndependentTestRootCA -->
<g id="node8" class="node">
<title>CDEODamaschkestr11OUArbeitszimmerCNDama11LabIndependentTestRootCA</title>
<polygon fill="none" stroke="#000000" points="1451.1616,-268 1208.8384,-268 1208.8384,-232 1451.1616,-232 1451.1616,-268"/>
<text text-anchor="middle" x="1330" y="-245.8" font-family="Times,serif" font-size="14.00" fill="#000000">Dama11 Lab Independent Test Root CA</text>
</g>
<!-- CDEODamaschkestr11OUArbeitszimmerCNDama11LabIndependentTestRootCA&#45;&gt;CDEODamaschkestr11OUArbeitszimmerCNDama11LabIndependentTestIntermediary -->
<g id="edge3" class="edge">
<title>CDEODamaschkestr11OUArbeitszimmerCNDama11LabIndependentTestRootCA-&gt;CDEODamaschkestr11OUArbeitszimmerCNDama11LabIndependentTestIntermediary</title>
<path fill="none" stroke="#000000" d="M1331.7664,-231.8314C1332.515,-224.131 1333.4053,-214.9743 1334.2373,-206.4166"/>
<polygon fill="#000000" stroke="#000000" points="1337.7256,-206.7051 1335.2098,-196.4133 1330.7585,-206.0276 1337.7256,-206.7051"/>
</g>
<!-- CDEODamaschkestr11OUArbeitszimmerCNDama11LabIndependentTestRootCA&#45;&gt;CDEODamaschkestr11OUArbeitszimmerCNDama11LabIndependentTestRootCA -->
<g id="edge4" class="edge">
<title>CDEODamaschkestr11OUArbeitszimmerCNDama11LabIndependentTestRootCA-&gt;CDEODamaschkestr11OUArbeitszimmerCNDama11LabIndependentTestRootCA</title>
<path fill="none" stroke="#000000" d="M1451.3443,-260.7281C1462.3857,-258.4979 1469.3307,-254.9219 1469.3307,-250 1469.3307,-246.77 1466.3397,-244.1196 1461.1629,-242.0489"/>
<polygon fill="#000000" stroke="#000000" points="1461.9194,-238.6256 1451.3443,-239.2719 1460.0142,-245.3614 1461.9194,-238.6256"/>
</g>
<!-- CDEODamaschkestr11OUArbeitszimmerCNDama11LabExtPartyAIntermediary1CA -->
<g id="node9" class="node">
<title>CDEODamaschkestr11OUArbeitszimmerCNDama11LabExtPartyAIntermediary1CA</title>
<polygon fill="none" stroke="#000000" points="1768.5328,-124 1501.4672,-124 1501.4672,-88 1768.5328,-88 1768.5328,-124"/>
<text text-anchor="middle" x="1635" y="-101.8" font-family="Times,serif" font-size="14.00" fill="#000000">Dama11 Lab Ext Party A Intermediary 1 CA</text>
</g>
<!-- CDEODamaschkestr11OUArbeitszimmerCNDama11LabExtPartyA1IdentityCA -->
<g id="node10" class="node">
<title>CDEODamaschkestr11OUArbeitszimmerCNDama11LabExtPartyA1IdentityCA</title>
<polygon fill="none" stroke="#000000" points="1752.7822,-52 1517.2178,-52 1517.2178,-16 1752.7822,-16 1752.7822,-52"/>
<text text-anchor="middle" x="1635" y="-29.8" font-family="Times,serif" font-size="14.00" fill="#000000">Dama11 Lab Ext Party A1 Identity CA</text>
</g>
<!-- CDEODamaschkestr11OUArbeitszimmerCNDama11LabExtPartyAIntermediary1CA&#45;&gt;CDEODamaschkestr11OUArbeitszimmerCNDama11LabExtPartyA1IdentityCA -->
<g id="edge2" class="edge">
<title>CDEODamaschkestr11OUArbeitszimmerCNDama11LabExtPartyAIntermediary1CA-&gt;CDEODamaschkestr11OUArbeitszimmerCNDama11LabExtPartyA1IdentityCA</title>
<path fill="none" stroke="#000000" d="M1635,-87.8314C1635,-80.131 1635,-70.9743 1635,-62.4166"/>
<polygon fill="#000000" stroke="#000000" points="1638.5001,-62.4132 1635,-52.4133 1631.5001,-62.4133 1638.5001,-62.4132"/>
</g>
<!-- CDEODamaschkestr11OUArbeitszimmerCNDama11LabExtPartyBIntermediary1CA -->
<g id="node11" class="node">
<title>CDEODamaschkestr11OUArbeitszimmerCNDama11LabExtPartyBIntermediary1CA</title>
<polygon fill="none" stroke="#000000" points="2053.2625,-124 1786.7375,-124 1786.7375,-88 2053.2625,-88 2053.2625,-124"/>
<text text-anchor="middle" x="1920" y="-101.8" font-family="Times,serif" font-size="14.00" fill="#000000">Dama11 Lab Ext Party B Intermediary 1 CA</text>
</g>
<!-- CDEODamaschkestr11OUArbeitszimmerCNDama11LabExternalPartyRootCA -->
<g id="node12" class="node">
<title>CDEODamaschkestr11OUArbeitszimmerCNDama11LabExternalPartyRootCA</title>
<polygon fill="none" stroke="#000000" points="1748.3362,-268 1521.6638,-268 1521.6638,-232 1748.3362,-232 1748.3362,-268"/>
<text text-anchor="middle" x="1635" y="-245.8" font-family="Times,serif" font-size="14.00" fill="#000000">Dama11 Lab External Party Root CA</text>
</g>
<!-- CDEODamaschkestr11OUArbeitszimmerCNDama11LabExternalPartyARootCA -->
<g id="node13" class="node">
<title>CDEODamaschkestr11OUArbeitszimmerCNDama11LabExternalPartyARootCA</title>
<polygon fill="none" stroke="#000000" points="1754.9426,-196 1515.0574,-196 1515.0574,-160 1754.9426,-160 1754.9426,-196"/>
<text text-anchor="middle" x="1635" y="-173.8" font-family="Times,serif" font-size="14.00" fill="#000000">Dama11 Lab External Party A Root CA</text>
</g>
<!-- CDEODamaschkestr11OUArbeitszimmerCNDama11LabExternalPartyRootCA&#45;&gt;CDEODamaschkestr11OUArbeitszimmerCNDama11LabExternalPartyARootCA -->
<g id="edge11" class="edge">
<title>CDEODamaschkestr11OUArbeitszimmerCNDama11LabExternalPartyRootCA-&gt;CDEODamaschkestr11OUArbeitszimmerCNDama11LabExternalPartyARootCA</title>
<path fill="none" stroke="#000000" d="M1635,-231.8314C1635,-224.131 1635,-214.9743 1635,-206.4166"/>
<polygon fill="#000000" stroke="#000000" points="1638.5001,-206.4132 1635,-196.4133 1631.5001,-206.4133 1638.5001,-206.4132"/>
</g>
<!-- CDEODamaschkestr11OUArbeitszimmerCNDama11LabExternalPartyBRootCA -->
<g id="node14" class="node">
<title>CDEODamaschkestr11OUArbeitszimmerCNDama11LabExternalPartyBRootCA</title>
<polygon fill="none" stroke="#000000" points="2025.6727,-196 1786.3273,-196 1786.3273,-160 2025.6727,-160 2025.6727,-196"/>
<text text-anchor="middle" x="1906" y="-173.8" font-family="Times,serif" font-size="14.00" fill="#000000">Dama11 Lab External Party B Root CA</text>
</g>
<!-- CDEODamaschkestr11OUArbeitszimmerCNDama11LabExternalPartyRootCA&#45;&gt;CDEODamaschkestr11OUArbeitszimmerCNDama11LabExternalPartyBRootCA -->
<g id="edge12" class="edge">
<title>CDEODamaschkestr11OUArbeitszimmerCNDama11LabExternalPartyRootCA-&gt;CDEODamaschkestr11OUArbeitszimmerCNDama11LabExternalPartyBRootCA</title>
<path fill="none" stroke="#000000" d="M1703.0349,-231.9243C1741.0487,-221.8247 1788.5734,-209.1982 1828.0772,-198.7027"/>
<polygon fill="#000000" stroke="#000000" points="1829.1711,-202.0336 1837.9371,-196.0831 1827.3736,-195.2683 1829.1711,-202.0336"/>
</g>
<!-- CDEODamaschkestr11OUArbeitszimmerCNDama11LabExternalPartyARootCA&#45;&gt;CDEODamaschkestr11OUArbeitszimmerCNDama11LabExtPartyAIntermediary1CA -->
<g id="edge1" class="edge">
<title>CDEODamaschkestr11OUArbeitszimmerCNDama11LabExternalPartyARootCA-&gt;CDEODamaschkestr11OUArbeitszimmerCNDama11LabExtPartyAIntermediary1CA</title>
<path fill="none" stroke="#000000" d="M1635,-159.8314C1635,-152.131 1635,-142.9743 1635,-134.4166"/>
<polygon fill="#000000" stroke="#000000" points="1638.5001,-134.4132 1635,-124.4133 1631.5001,-134.4133 1638.5001,-134.4132"/>
</g>
<!-- CDEODamaschkestr11OUArbeitszimmerCNDama11LabExternalPartyBRootCA&#45;&gt;CDEODamaschkestr11OUArbeitszimmerCNDama11LabExtPartyBIntermediary1CA -->
<g id="edge5" class="edge">
<title>CDEODamaschkestr11OUArbeitszimmerCNDama11LabExternalPartyBRootCA-&gt;CDEODamaschkestr11OUArbeitszimmerCNDama11LabExtPartyBIntermediary1CA</title>
<path fill="none" stroke="#000000" d="M1909.5328,-159.8314C1911.0301,-152.131 1912.8105,-142.9743 1914.4745,-134.4166"/>
<polygon fill="#000000" stroke="#000000" points="1917.9465,-134.8975 1916.4196,-124.4133 1911.0752,-133.5614 1917.9465,-134.8975"/>
</g>
<!-- CDEODamaschkestr11OUArbeitszimmerCNDama11LabRootCA -->
<g id="node15" class="node">
<title>CDEODamaschkestr11OUArbeitszimmerCNDama11LabRootCA</title>
<polygon fill="none" stroke="#000000" points="540.3645,-377.6 397.6355,-377.6 397.6355,-341.6 540.3645,-341.6 540.3645,-377.6"/>
<text text-anchor="middle" x="469" y="-355.4" font-family="Times,serif" font-size="14.00" fill="#000000">Dama11 Lab Root CA</text>
</g>
<!-- CDEODamaschkestr11OUArbeitszimmerCNDama11LabRootCA&#45;&gt;CDEODamaschkestr11OUArbeitszimmerCNDama11LabIntermediaryTestCA -->
<g id="edge9" class="edge">
<title>CDEODamaschkestr11OUArbeitszimmerCNDama11LabRootCA-&gt;CDEODamaschkestr11OUArbeitszimmerCNDama11LabIntermediaryTestCA</title>
<path fill="none" stroke="#000000" d="M540.4229,-343.1392C551.4045,-340.2073 562.5576,-336.9958 573,-333.6 628.0527,-315.6973 689.3311,-290.2261 730.8292,-272.1128"/>
<polygon fill="#000000" stroke="#000000" points="732.4034,-275.2442 740.1543,-268.021 729.5907,-268.8342 732.4034,-275.2442"/>
</g>
<!-- CDEODamaschkestr11OUArbeitszimmerCNDama11LabRootCA&#45;&gt;CDEODamaschkestr11OUArbeitszimmerCNDama11LabExternalPartyRootCA -->
<g id="edge7" class="edge">
<title>CDEODamaschkestr11OUArbeitszimmerCNDama11LabRootCA-&gt;CDEODamaschkestr11OUArbeitszimmerCNDama11LabExternalPartyRootCA</title>
<path fill="none" stroke="#000000" d="M540.4516,-358.6803C763.6563,-355.6868 1435.7439,-345.7125 1481,-333.6 1525.9349,-321.5735 1572.1318,-294.0888 1602.0524,-273.9026"/>
<polygon fill="#000000" stroke="#000000" points="1604.1556,-276.7042 1610.4203,-268.1599 1600.1947,-270.9325 1604.1556,-276.7042"/>
</g>
<!-- CDEODamaschkestr11OUArbeitszimmerCNDama11LabRootCA&#45;&gt;CDEODamaschkestr11OUArbeitszimmerCNDama11LabRootCA -->
<g id="edge6" class="edge">
<title>CDEODamaschkestr11OUArbeitszimmerCNDama11LabRootCA-&gt;CDEODamaschkestr11OUArbeitszimmerCNDama11LabRootCA</title>
<path fill="none" stroke="#000000" d="M505.6431,-377.6698C531.9637,-383.5529 558.182,-377.5297 558.182,-359.6 558.182,-343.9816 538.2875,-337.3978 515.7607,-339.8486"/>
<polygon fill="#000000" stroke="#000000" points="514.9339,-336.438 505.6431,-341.5302 516.0816,-343.3432 514.9339,-336.438"/>
</g>
<!-- CDEODamaschkestr11OUArbeitszimmerCNDama11LabIdentityBridgeCA -->
<g id="node16" class="node">
<title>CDEODamaschkestr11OUArbeitszimmerCNDama11LabIdentityBridgeCA</title>
<polygon fill="none" stroke="#000000" points="355.2864,-268 154.7136,-268 154.7136,-232 355.2864,-232 355.2864,-268"/>
<text text-anchor="middle" x="255" y="-245.8" font-family="Times,serif" font-size="14.00" fill="#000000">Dama11 Lab Identity Bridge CA</text>
</g>
<!-- CDEODamaschkestr11OUArbeitszimmerCNDama11LabRootCA&#45;&gt;CDEODamaschkestr11OUArbeitszimmerCNDama11LabIdentityBridgeCA -->
<g id="edge8" class="edge">
<title>CDEODamaschkestr11OUArbeitszimmerCNDama11LabRootCA-&gt;CDEODamaschkestr11OUArbeitszimmerCNDama11LabIdentityBridgeCA</title>
<path fill="none" stroke="#000000" d="M397.5689,-346.1347C386.0605,-342.7771 374.4918,-338.6488 364,-333.6 332.749,-318.5616 301.8298,-293.6319 280.9497,-274.9012"/>
<polygon fill="#000000" stroke="#000000" points="283.2031,-272.2192 273.459,-268.0596 278.4823,-277.3878 283.2031,-272.2192"/>
</g>
<!-- CDEODamaschkestr11OUArbeitszimmerCNDama11LabIntermediaryCA -->
<g id="node17" class="node">
<title>CDEODamaschkestr11OUArbeitszimmerCNDama11LabIntermediaryCA</title>
<polygon fill="none" stroke="#000000" points="560.9347,-268 373.0653,-268 373.0653,-232 560.9347,-232 560.9347,-268"/>
<text text-anchor="middle" x="467" y="-245.8" font-family="Times,serif" font-size="14.00" fill="#000000">Dama11 Lab Intermediary CA</text>
</g>
<!-- CDEODamaschkestr11OUArbeitszimmerCNDama11LabRootCA&#45;&gt;CDEODamaschkestr11OUArbeitszimmerCNDama11LabIntermediaryCA -->
<g id="edge10" class="edge">
<title>CDEODamaschkestr11OUArbeitszimmerCNDama11LabRootCA-&gt;CDEODamaschkestr11OUArbeitszimmerCNDama11LabIntermediaryCA</title>
<path fill="none" stroke="#000000" d="M468.6697,-341.5018C468.3556,-324.2883 467.8783,-298.1333 467.5144,-278.1888"/>
<polygon fill="#000000" stroke="#000000" points="471.0127,-278.0595 467.3307,-268.1251 464.0139,-278.1873 471.0127,-278.0595"/>
</g>
<!-- CDEODamaschkestr11OUArbeitszimmerCNDama11LabSoftwareCA -->
<g id="node18" class="node">
<title>CDEODamaschkestr11OUArbeitszimmerCNDama11LabSoftwareCA</title>
<polygon fill="none" stroke="#000000" points="185.6671,-196 16.3329,-196 16.3329,-160 185.6671,-160 185.6671,-196"/>
<text text-anchor="middle" x="101" y="-173.8" font-family="Times,serif" font-size="14.00" fill="#000000">Dama 11 Lab Software CA</text>
</g>
<!-- CDEODamaschkestr11OUArbeitszimmerCNDama11LabIntermediaryCA&#45;&gt;CDEODamaschkestr11OUArbeitszimmerCNDama11LabSoftwareCA -->
<g id="edge13" class="edge">
<title>CDEODamaschkestr11OUArbeitszimmerCNDama11LabIntermediaryCA-&gt;CDEODamaschkestr11OUArbeitszimmerCNDama11LabSoftwareCA</title>
<path fill="none" stroke="#000000" d="M375.1152,-231.9243C320.3954,-221.1598 251.0835,-207.5246 195.8486,-196.6587"/>
<polygon fill="#000000" stroke="#000000" points="196.1931,-193.1595 185.7055,-194.6634 194.8419,-200.0279 196.1931,-193.1595"/>
</g>
<!-- CDEODamaschkestr11OUArbeitszimmerCNDama11LabComponentCA -->
<g id="node19" class="node">
<title>CDEODamaschkestr11OUArbeitszimmerCNDama11LabComponentCA</title>
<polygon fill="none" stroke="#000000" points="384.4698,-196 203.5302,-196 203.5302,-160 384.4698,-160 384.4698,-196"/>
<text text-anchor="middle" x="294" y="-173.8" font-family="Times,serif" font-size="14.00" fill="#000000">Dama11 Lab Component CA</text>
</g>
<!-- CDEODamaschkestr11OUArbeitszimmerCNDama11LabIntermediaryCA&#45;&gt;CDEODamaschkestr11OUArbeitszimmerCNDama11LabComponentCA -->
<g id="edge14" class="edge">
<title>CDEODamaschkestr11OUArbeitszimmerCNDama11LabIntermediaryCA-&gt;CDEODamaschkestr11OUArbeitszimmerCNDama11LabComponentCA</title>
<path fill="none" stroke="#000000" d="M423.3448,-231.8314C400.1042,-222.159 371.3432,-210.1891 346.8477,-199.9944"/>
<polygon fill="#000000" stroke="#000000" points="347.9185,-196.6491 337.3413,-196.038 345.2288,-203.1117 347.9185,-196.6491"/>
</g>
<!-- CDEODamaschkestr11OUArbeitszimmerCNDama11LabIdentityCA -->
<g id="node20" class="node">
<title>CDEODamaschkestr11OUArbeitszimmerCNDama11LabIdentityCA</title>
<polygon fill="none" stroke="#000000" points="561.1841,-196 402.8159,-196 402.8159,-160 561.1841,-160 561.1841,-196"/>
<text text-anchor="middle" x="482" y="-173.8" font-family="Times,serif" font-size="14.00" fill="#000000">Dama11 Lab Identity CA</text>
</g>
<!-- CDEODamaschkestr11OUArbeitszimmerCNDama11LabIntermediaryCA&#45;&gt;CDEODamaschkestr11OUArbeitszimmerCNDama11LabIdentityCA -->
<g id="edge15" class="edge">
<title>CDEODamaschkestr11OUArbeitszimmerCNDama11LabIntermediaryCA-&gt;CDEODamaschkestr11OUArbeitszimmerCNDama11LabIdentityCA</title>
<path fill="none" stroke="#000000" d="M470.7851,-231.8314C472.3894,-224.131 474.297,-214.9743 476.0799,-206.4166"/>
<polygon fill="#000000" stroke="#000000" points="479.5507,-206.9169 478.1639,-196.4133 472.6979,-205.4892 479.5507,-206.9169"/>
</g>
</g>
</svg>