<?xml version="1.0" encoding="UTF-8" standalone="no"?>
<!DOCTYPE svg PUBLIC "-//W3C//DTD SVG 1.1//EN" "http://www.w3.org/Graphics/SVG/1.1/DTD/svg11.dtd">
<!-- Generated by graphviz version 2.40.1 (20161225.0304)
 -->
<!-- Title: D Pages: 1 -->
<svg width="1689pt" height="426pt" viewBox="0.00 0.00 1689.00 426.40" xmlns="http://www.w3.org/2000/svg" xmlns:xlink="http://www.w3.org/1999/xlink">
<g id="graph0" class="graph" transform="scale(1 1) rotate(0) translate(4 422.4)">
<title>D</title>
<polygon fill="#ffffff" stroke="transparent" points="-4,4 -4,-422.4 1685,-422.4 1685,4 -4,4"/>
<g id="clust1" class="cluster">
<title>cluster_testing</title>
<polygon fill="none" stroke="#000000" points="577,-144 577,-333.6 1097,-333.6 1097,-144 577,-144"/>
<text text-anchor="middle" x="837" y="-317" font-family="Times,serif" font-size="14.00" fill="#000000">Tests</text>
</g>
<g id="clust2" class="cluster">
<title>cluster_independent</title>
<polygon fill="none" stroke="#000000" points="809,-152 809,-300.8 1089,-300.8 1089,-152 809,-152"/>
<text text-anchor="middle" x="949" y="-284.2" font-family="Times,serif" font-size="14.00" fill="#000000">Independent Hierarchy</text>
</g>
<g id="clust3" class="cluster">
<title>cluster_external</title>
<polygon fill="none" stroke="#000000" points="1105,-8 1105,-300.8 1673,-300.8 1673,-8 1105,-8"/>
<text text-anchor="middle" x="1389" y="-284.2" font-family="Times,serif" font-size="14.00" fill="#000000">External Hierarchies</text>
</g>
<g id="clust4" class="cluster">
<title>cluster_production</title>
<polygon fill="none" stroke="#000000" points="8,-152 8,-410.4 569,-410.4 569,-152 8,-152"/>
<text text-anchor="middle" x="288.5" y="-393.8" font-family="Times,serif" font-size="14.00" fill="#000000">Production</text>
</g>
<!-- CDEODamaschkestr11OUArbeitszimmerCNDama11LabIntermediaryTestCA -->
<g id="node1" class="node">
<title>CDEODamaschkestr11OUArbeitszimmerCNDama11LabIntermediaryTestCA</title>
<polygon fill="none" stroke="#000000" points="800.5366,-268 585.4634,-268 585.4634,-232 800.5366,-232 800.5366,-268"/>
<text text-anchor="middle" x="693" y="-245.8" font-family="Times,serif" font-size="14.00" fill="#000000">Dama11 Lab Intermediary Test CA</text>
</g>
<!-- CDEODamaschkestr11OUArbeitszimmerCNDama11LabIndependentTestIntermediary -->
<g id="node2" class="node">
<title>CDEODamaschkestr11OUArbeitszimmerCNDama11LabIndependentTestIntermediary</title>
<polygon fill="none" stroke="#000000" points="1081.2885,-196 816.7115,-196 816.7115,-160 1081.2885,-160 1081.2885,-196"/>
<text text-anchor="middle" x="949" y="-173.8" font-family="Times,serif" font-size="14.00" fill="#000000">Dama11 Lab Independent Test Intermediary</text>
</g>
<!-- CDEODamaschkestr11OUArbeitszimmerCNDama11LabIndependentTestRootCA -->
<g id="node3" class="node">
<title>CDEODamaschkestr11OUArbeitszimmerCNDama11LabIndependentTestRootCA</title>
<polygon fill="none" stroke="#000000" points="1063.1616,-268 820.8384,-268 820.8384,-232 1063.1616,-232 1063.1616,-268"/>
<text text-anchor="middle" x="942" y="-245.8" font-family="Times,serif" font-size="14.00" fill="#000000">Dama11 Lab Independent Test Root CA</text>
</g>
<!-- CDEODamaschkestr11OUArbeitszimmerCNDama11LabIndependentTestRootCA&#45;&gt;CDEODamaschkestr11OUArbeitszimmerCNDama11LabIndependentTestIntermediary -->
<g id="edge3" class="edge">
<title>CDEODamaschkestr11OUArbeitszimmerCNDama11LabIndependentTestRootCA-&gt;CDEODamaschkestr11OUArbeitszimmerCNDama11LabIndependentTestIntermediary</title>
<path fill="none" stroke="#000000" d="M943.7664,-231.8314C944.515,-224.131 945.4053,-214.9743 946.2373,-206.4166"/>
<polygon fill="#000000" stroke="#000000" points="949.7256,-206.7051 947.2098,-196.4133 942.7585,-206.0276 949.7256,-206.7051"/>
</g>
<!-- CDEODamaschkestr11OUArbeitszimmerCNDama11LabIndependentTestRootCA&#45;&gt;CDEODamaschkestr11OUArbeitszimmerCNDama11LabIndependentTestRootCA -->
<g id="edge4" class="edge">
<title>CDEODamaschkestr11OUArbeitszimmerCNDama11LabIndependentTestRootCA-&gt;CDEODamaschkestr11OUArbeitszimmerCNDama11LabIndependentTestRootCA</title>
<path fill="none" stroke="#000000" d="M1063.3443,-260.7281C1074.3857,-258.4979 1081.3307,-254.9219 1081.3307,-250 1081.3307,-246.77 1078.3397,-244.1196 1073.1629,-242.0489"/>
<polygon fill="#000000" stroke="#000000" points="1073.9194,-238.6256 1063.3443,-239.2719 1072.0142,-245.3614 1073.9194,-238.6256"/>
</g>
<!-- CDEODamaschkestr11OUArbeitszimmerCNDama11LabExtPartyAIntermediary1CA -->
<g id="node4" class="node">
<title>CDEODamaschkestr11OUArbeitszimmerCNDama11LabExtPartyAIntermediary1CA</title>
<polygon fill="none" stroke="#000000" points="1380.5328,-124 1113.4672,-124 1113.4672,-88 1380.5328,-88 1380.5328,-124"/>
<text text-anchor="middle" x="1247" y="-101.8" font-family="Times,serif" font-size="14.00" fill="#000000">Dama11 Lab Ext Party A Intermediary 1 CA</text>
</g>
<!-- CDEODamaschkestr11OUArbeitszimmerCNDama11LabExtPartyA1IdentityCA -->
<g id="node5" class="node">
<title>CDEODamaschkestr11OUArbeitszimmerCNDama11LabExtPartyA1IdentityCA</title>
<polygon fill="none" stroke="#000000" points="1364.7822,-52 1129.2178,-52 1129.2178,-16 1364.7822,-16 1364.7822,-52"/>
<text text-anchor="middle" x="1247" y="-29.8" font-family="Times,serif" font-size="14.00" fill="#000000">Dama11 Lab Ext Party A1 Identity CA</text>
</g>
<!-- CDEODamaschkestr11OUArbeitszimmerCNDama11LabExtPartyAIntermediary1CA&#45;&gt;CDEODamaschkestr11OUArbeitszimmerCNDama11LabExtPartyA1IdentityCA -->
<g id="edge2" class="edge">
<title>CDEODamaschkestr11OUArbeitszimmerCNDama11LabExtPartyAIntermediary1CA-&gt;CDEODamaschkestr11OUArbeitszimmerCNDama11LabExtPartyA1IdentityCA</title>
<path fill="none" stroke="#000000" d="M1247,-87.8314C1247,-80.131 1247,-70.9743 1247,-62.4166"/>
<polygon fill="#000000" stroke="#000000" points="1250.5001,-62.4132 1247,-52.4133 1243.5001,-62.4133 1250.5001,-62.4132"/>
</g>
<!-- CDEODamaschkestr11OUArbeitszimmerCNDama11LabExtPartyBIntermediary1CA -->
<g id="node6" class="node">
<title>CDEODamaschkestr11OUArbeitszimmerCNDama11LabExtPartyBIntermediary1CA</title>
<polygon fill="none" stroke="#000000" points="1665.2625,-124 1398.7375,-124 1398.7375,-88 1665.2625,-88 1665.2625,-124"/>
<text text-anchor="middle" x="1532" y="-101.8" font-family="Times,serif" font-size="14.00" fill="#000000">Dama11 Lab Ext Party B Intermediary 1 CA</text>
</g>
<!-- CDEODamaschkestr11OUArbeitszimmerCNDama11LabExternalPartyRootCA -->
<g id="node7" class="node">
<title>CDEODamaschkestr11OUArbeitszimmerCNDama11LabExternalPartyRootCA</title>
<polygon fill="none" stroke="#000000" points="1360.3362,-268 1133.6638,-268 1133.6638,-232 1360.3362,-232 1360.3362,-268"/>
<text text-anchor="middle" x="1247" y="-245.8" font-family="Times,serif" font-size="14.00" fill="#000000">Dama11 Lab External Party Root CA</text>
</g>
<!-- CDEODamaschkestr11OUArbeitszimmerCNDama11LabExternalPartyARootCA -->
<g id="node8" class="node">
<title>CDEODamaschkestr11OUArbeitszimmerCNDama11LabExternalPartyARootCA</title>
<polygon fill="none" stroke="#000000" points="1366.9426,-196 1127.0574,-196 1127.0574,-160 1366.9426,-160 1366.9426,-196"/>
<text text-anchor="middle" x="1247" y="-173.8" font-family="Times,serif" font-size="14.00" fill="#000000">Dama11 Lab External Party A Root CA</text>
</g>
<!-- CDEODamaschkestr11OUArbeitszimmerCNDama11LabExternalPartyRootCA&#45;&gt;CDEODamaschkestr11OUArbeitszimmerCNDama11LabExternalPartyARootCA -->
<g id="edge11" class="edge">
<title>CDEODamaschkestr11OUArbeitszimmerCNDama11LabExternalPartyRootCA-&gt;CDEODamaschkestr11OUArbeitszimmerCNDama11LabExternalPartyARootCA</title>
<path fill="none" stroke="#000000" d="M1247,-231.8314C1247,-224.131 1247,-214.9743 1247,-206.4166"/>
<polygon fill="#000000" stroke="#000000" points="1250.5001,-206.4132 1247,-196.4133 1243.5001,-206.4133 1250.5001,-206.4132"/>
</g>
<!-- CDEODamaschkestr11OUArbeitszimmerCNDama11LabExternalPartyBRootCA -->
<g id="node9" class="node">
<title>CDEODamaschkestr11OUArbeitszimmerCNDama11LabExternalPartyBRootCA</title>
<polygon fill="none" stroke="#000000" points="1637.6727,-196 1398.3273,-196 1398.3273,-160 1637.6727,-160 1637.6727,-196"/>
<text text-anchor="middle" x="1518" y="-173.8" font-family="Times,serif" font-size="14.00" fill="#000000">Dama11 Lab External Party B Root CA</text>
</g>
<!-- CDEODamaschkestr11OUArbeitszimmerCNDama11LabExternalPartyRootCA&#45;&gt;CDEODamaschkestr11OUArbeitszimmerCNDama11LabExternalPartyBRootCA -->
<g id="edge12" class="edge">
<title>CDEODamaschkestr11OUArbeitszimmerCNDama11LabExternalPartyRootCA-&gt;CDEODamaschkestr11OUArbeitszimmerCNDama11LabExternalPartyBRootCA</title>
<path fill="none" stroke="#000000" d="M1315.0349,-231.9243C1353.0487,-221.8247 1400.5734,-209.1982 1440.0772,-198.7027"/>
<polygon fill="#000000" stroke="#000000" points="1441.1711,-202.0336 1449.9371,-196.0831 1439.3736,-195.2683 1441.1711,-202.0336"/>
</g>
<!-- CDEODamaschkestr11OUArbeitszimmerCNDama11LabExternalPartyARootCA&#45;&gt;CDEODamaschkestr11OUArbeitszimmerCNDama11LabExtPartyAIntermediary1CA -->
<g id="edge1" class="edge">
<title>CDEODamaschkestr11OUArbeitszimmerCNDama11LabExternalPartyARootCA-&gt;CDEODamaschkestr11OUArbeitszimmerCNDama11LabExtPartyAIntermediary1CA</title>
<path fill="none" stroke="#000000" d="M1247,-159.8314C1247,-152.131 1247,-142.9743 1247,-134.4166"/>
<polygon fill="#000000" stroke="#000000" points="1250.5001,-134.4132 1247,-124.4133 1243.5001,-134.4133 1250.5001,-134.4132"/>
</g>
<!-- CDEODamaschkestr11OUArbeitszimmerCNDama11LabExternalPartyBRootCA&#45;&gt;CDEODamaschkestr11OUArbeitszimmerCNDama11LabExtPartyBIntermediary1CA -->
<g id="edge5" class="edge">
<title>CDEODamaschkestr11OUArbeitszimmerCNDama11LabExternalPartyBRootCA-&gt;CDEODamaschkestr11OUArbeitszimmerCNDama11LabExtPartyBIntermediary1CA</title>
<path fill="none" stroke="#000000" d="M1521.5328,-159.8314C1523.0301,-152.131 1524.8105,-142.9743 1526.4745,-134.4166"/>
<polygon fill="#000000" stroke="#000000" points="1529.9465,-134.8975 1528.4196,-124.4133 1523.0752,-133.5614 1529.9465,-134.8975"/>
</g>
<!-- CDEODamaschkestr11OUArbeitszimmerCNDama11LabRootCA -->
<g id="node10" class="node">
<title>CDEODamaschkestr11OUArbeitszimmerCNDama11LabRootCA</title>
<polygon fill="none" stroke="#000000" points="540.3645,-377.6 397.6355,-377.6 397.6355,-341.6 540.3645,-341.6 540.3645,-377.6"/>
<text text-anchor="middle" x="469" y="-355.4" font-family="Times,serif" font-size="14.00" fill="#000000">Dama11 Lab Root CA</text>
</g>
<!-- CDEODamaschkestr11OUArbeitszimmerCNDama11LabRootCA&#45;&gt;CDEODamaschkestr11OUArbeitszimmerCNDama11LabIntermediaryTestCA -->
<g id="edge9" class="edge">
<title>CDEODamaschkestr11OUArbeitszimmerCNDama11LabRootCA-&gt;CDEODamaschkestr11OUArbeitszimmerCNDama11LabIntermediaryTestCA</title>
<path fill="none" stroke="#000000" d="M540.3866,-345.4238C551.5361,-342.1702 562.7499,-338.2604 573,-333.6 606.5545,-318.3437 640.6422,-293.5066 663.8681,-274.8609"/>
<polygon fill="#000000" stroke="#000000" points="666.3746,-277.3331 671.9124,-268.3007 661.9506,-271.9082 666.3746,-277.3331"/>
</g>
<!-- CDEODamaschkestr11OUArbeitszimmerCNDama11LabRootCA&#45;&gt;CDEODamaschkestr11OUArbeitszimmerCNDama11LabExternalPartyRootCA -->
<g id="edge7" class="edge">
<title>CDEODamaschkestr11OUArbeitszimmerCNDama11LabRootCA-&gt;CDEODamaschkestr11OUArbeitszimmerCNDama11LabExternalPartyRootCA</title>
<path fill="none" stroke="#000000" d="M540.2969,-358.4431C692.7854,-355.7063 1041.0044,-347.9618 1093,-333.6 1137.8375,-321.2153 1184.0534,-293.8004 1214.005,-273.7283"/>
<polygon fill="#000000" stroke="#000000" points="1216.089,-276.5436 1222.3824,-268.0204 1212.1475,-270.7588 1216.089,-276.5436"/>
</g>
<!-- CDEODamaschkestr11OUArbeitszimmerCNDama11LabRootCA&#45;&gt;CDEODamaschkestr11OUArbeitszimmerCNDama11LabRootCA -->
<g id="edge6" class="edge">
<title>CDEODamaschkestr11OUArbeitszimmerCNDama11LabRootCA-&gt;CDEODamaschkestr11OUArbeitszimmerCNDama11LabRootCA</title>
<path fill="none" stroke="#000000" d="M505.6431,-377.6698C531.9637,-383.5529 558.182,-377.5297 558.182,-359.6 558.182,-343.9816 538.2875,-337.3978 515.7607,-339.8486"/>
<polygon fill="#000000" stroke="#000000" points="514.9339,-336.438 505.6431,-341.5302 516.0816,-343.3432 514.9339,-336.438"/>
</g>
<!-- CDEODamaschkestr11OUArbeitszimmerCNDama11LabIdentityBridgeCA -->
<g id="node11" class="node">
<title>CDEODamaschkestr11OUArbeitszimmerCNDama11LabIdentityBridgeCA</title>
<polygon fill="none" stroke="#000000" points="355.2864,-268 154.7136,-268 154.7136,-232 355.2864,-232 355.2864,-268"/>
<text text-anchor="middle" x="255" y="-245.8" font-family="Times,serif" font-size="14.00" fill="#000000">Dama11 Lab Identity Bridge CA</text>
</g>
<!-- CDEODamaschkestr11OUArbeitszimmerCNDama11LabRootCA&#45;&gt;CDEODamaschkestr11OUArbeitszimmerCNDama11LabIdentityBridgeCA -->
<g id="edge8" class="edge">
<title>CDEODamaschkestr11OUArbeitszimmerCNDama11LabRootCA-&gt;CDEODamaschkestr11OUArbeitszimmerCNDama11LabIdentityBridgeCA</title>
<path fill="none" stroke="#000000" d="M397.5689,-346.1347C386.0605,-342.7771 374.4918,-338.6488 364,-333.6 332.749,-318.5616 301.8298,-293.6319 280.9497,-274.9012"/>
<polygon fill="#000000" stroke="#000000" points="283.2031,-272.2192 273.459,-268.0596 278.4823,-277.3878 283.2031,-272.2192"/>
</g>
<!-- CDEODamaschkestr11OUArbeitszimmerCNDama11LabIntermediaryCA -->
<g id="node12" class="node">
<title>CDEODamaschkestr11OUArbeitszimmerCNDama11LabIntermediaryCA</title>
<polygon fill="none" stroke="#000000" points="560.9347,-268 373.0653,-268 373.0653,-232 560.9347,-232 560.9347,-268"/>
<text text-anchor="middle" x="467" y="-245.8" font-family="Times,serif" font-size="14.00" fill="#000000">Dama11 Lab Intermediary CA</text>
</g>
<!-- CDEODamaschkestr11OUArbeitszimmerCNDama11LabRootCA&#45;&gt;CDEODamaschkestr11OUArbeitszimmerCNDama11LabIntermediaryCA -->
<g id="edge10" class="edge">
<title>CDEODamaschkestr11OUArbeitszimmerCNDama11LabRootCA-&gt;CDEODamaschkestr11OUArbeitszimmerCNDama11LabIntermediaryCA</title>
<path fill="none" stroke="#000000" d="M468.6697,-341.5018C468.3556,-324.2883 467.8783,-298.1333 467.5144,-278.1888"/>
<polygon fill="#000000" stroke="#000000" points="471.0127,-278.0595 467.3307,-268.1251 464.0139,-278.1873 471.0127,-278.0595"/>
</g>
<!-- CDEODamaschkestr11OUArbeitszimmerCNDama11LabSoftwareCA -->
<g id="node13" class="node">
<title>CDEODamaschkestr11OUArbeitszimmerCNDama11LabSoftwareCA</title>
<polygon fill="none" stroke="#000000" points="185.6671,-196 16.3329,-196 16.3329,-160 185.6671,-160 185.6671,-196"/>
<text text-anchor="middle" x="101" y="-173.8" font-family="Times,serif" font-size="14.00" fill="#000000">Dama 11 Lab Software CA</text>
</g>
<!-- CDEODamaschkestr11OUArbeitszimmerCNDama11LabIntermediaryCA&#45;&gt;CDEODamaschkestr11OUArbeitszimmerCNDama11LabSoftwareCA -->
<g id="edge13" class="edge">
<title>CDEODamaschkestr11OUArbeitszimmerCNDama11LabIntermediaryCA-&gt;CDEODamaschkestr11OUArbeitszimmerCNDama11LabSoftwareCA</title>
<path fill="none" stroke="#000000" d="M375.1152,-231.9243C320.3954,-221.1598 251.0835,-207.5246 195.8486,-196.6587"/>
<polygon fill="#000000" stroke="#000000" points="196.1931,-193.1595 185.7055,-194.6634 194.8419,-200.0279 196.1931,-193.1595"/>
</g>
<!-- CDEODamaschkestr11OUArbeitszimmerCNDama11LabComponentCA -->
<g id="node14" class="node">
<title>CDEODamaschkestr11OUArbeitszimmerCNDama11LabComponentCA</title>
<polygon fill="none" stroke="#000000" points="384.4698,-196 203.5302,-196 203.5302,-160 384.4698,-160 384.4698,-196"/>
<text text-anchor="middle" x="294" y="-173.8" font-family="Times,serif" font-size="14.00" fill="#000000">Dama11 Lab Component CA</text>
</g>
<!-- CDEODamaschkestr11OUArbeitszimmerCNDama11LabIntermediaryCA&#45;&gt;CDEODamaschkestr11OUArbeitszimmerCNDama11LabComponentCA -->
<g id="edge14" class="edge">
<title>CDEODamaschkestr11OUArbeitszimmerCNDama11LabIntermediaryCA-&gt;CDEODamaschkestr11OUArbeitszimmerCNDama11LabComponentCA</title>
<path fill="none" stroke="#000000" d="M423.3448,-231.8314C400.1042,-222.159 371.3432,-210.1891 346.8477,-199.9944"/>
<polygon fill="#000000" stroke="#000000" points="347.9185,-196.6491 337.3413,-196.038 345.2288,-203.1117 347.9185,-196.6491"/>
</g>
<!-- CDEODamaschkestr11OUArbeitszimmerCNDama11LabIdentityCA -->
<g id="node15" class="node">
<title>CDEODamaschkestr11OUArbeitszimmerCNDama11LabIdentityCA</title>
<polygon fill="none" stroke="#000000" points="561.1841,-196 402.8159,-196 402.8159,-160 561.1841,-160 561.1841,-196"/>
<text text-anchor="middle" x="482" y="-173.8" font-family="Times,serif" font-size="14.00" fill="#000000">Dama11 Lab Identity CA</text>
</g>
<!-- CDEODamaschkestr11OUArbeitszimmerCNDama11LabIntermediaryCA&#45;&gt;CDEODamaschkestr11OUArbeitszimmerCNDama11LabIdentityCA -->
<g id="edge15" class="edge">
<title>CDEODamaschkestr11OUArbeitszimmerCNDama11LabIntermediaryCA-&gt;CDEODamaschkestr11OUArbeitszimmerCNDama11LabIdentityCA</title>
<path fill="none" stroke="#000000" d="M470.7851,-231.8314C472.3894,-224.131 474.297,-214.9743 476.0799,-206.4166"/>
<polygon fill="#000000" stroke="#000000" points="479.5507,-206.9169 478.1639,-196.4133 472.6979,-205.4892 479.5507,-206.9169"/>
</g>
</g>
</svg>