<?xml version="1.0" encoding="UTF-8" standalone="no"?>
<!DOCTYPE svg PUBLIC "-//W3C//DTD SVG 1.1//EN" "http://www.w3.org/Graphics/SVG/1.1/DTD/svg11.dtd">
<!-- Generated by graphviz version 2.40.1 (20161225.0304)
 -->
<!-- Title: D Pages: 1 -->
<svg width="825pt" height="220pt" viewBox="0.00 0.00 825.00 220.00" xmlns="http://www.w3.org/2000/svg" xmlns:xlink="http://www.w3.org/1999/xlink">
<g id="graph0" class="graph" transform="scale(1 1) rotate(0) translate(4 216)">
<title>D</title>
<polygon fill="#ffffff" stroke="transparent" points="-4,4 -4,-216 821,-216 821,4 -4,4"/>
<g id="clust1" class="cluster">
<title>cluster_testing</title>
<polygon fill="none" stroke="#000000" points="577,-80 577,-132 809,-132 809,-80 577,-80"/>
</g>
<g id="clust2" class="cluster">
<title>cluster_production</title>
<polygon fill="none" stroke="#000000" points="8,-8 8,-204 569,-204 569,-8 8,-8"/>
</g>
<!-- CDEODamaschkestr11OUArbeitszimmerCNDama11LabIntermediaryTestCA -->
<g id="node1" class="node">
<title>CDEODamaschkestr11OUArbeitszimmerCNDama11LabIntermediaryTestCA</title>
<polygon fill="none" stroke="#000000" points="800.5366,-124 585.4634,-124 585.4634,-88 800.5366,-88 800.5366,-124"/>
<text text-anchor="middle" x="693" y="-101.8" font-family="Times,serif" font-size="14.00" fill="#000000">Dama11 Lab Intermediary Test CA</text>
</g>
<!-- CDEODamaschkestr11OUArbeitszimmerCNDama11LabRootCA -->
<g id="node2" class="node">
<title>CDEODamaschkestr11OUArbeitszimmerCNDama11LabRootCA</title>
<polygon fill="none" stroke="#000000" points="468.3645,-196 325.6355,-196 325.6355,-160 468.3645,-160 468.3645,-196"/>
<text text-anchor="middle" x="397" y="-173.8" font-family="Times,serif" font-size="14.00" fill="#000000">Dama11 Lab Root CA</text>
</g>
<!-- CDEODamaschkestr11OUArbeitszimmerCNDama11LabRootCA&#45;&gt;CDEODamaschkestr11OUArbeitszimmerCNDama11LabIntermediaryTestCA -->
<g id="edge3" class="edge">
<title>CDEODamaschkestr11OUArbeitszimmerCNDama11LabRootCA-&gt;CDEODamaschkestr11OUArbeitszimmerCNDama11LabIntermediaryTestCA</title>
<path fill="none" stroke="#000000" d="M468.2761,-160.6626C510.6598,-150.353 564.647,-137.221 609.0827,-126.4123"/>
<polygon fill="#000000" stroke="#000000" points="610.1023,-129.7664 618.9917,-124.002 608.4478,-122.9648 610.1023,-129.7664"/>
</g>
<!-- CDEODamaschkestr11OUArbeitszimmerCNDama11LabRootCA&#45;&gt;CDEODamaschkestr11OUArbeitszimmerCNDama11LabRootCA -->
<g id="edge1" class="edge">
<title>CDEODamaschkestr11OUArbeitszimmerCNDama11LabRootCA-&gt;CDEODamaschkestr11OUArbeitszimmerCNDama11LabRootCA</title>
<path fill="none" stroke="#000000" d="M468.3714,-190.2467C478.996,-188.3401 486.182,-184.2578 486.182,-178 486.182,-173.9911 483.2329,-170.875 478.3198,-168.6518"/>
<polygon fill="#000000" stroke="#000000" points="478.9513,-165.1903 468.3714,-165.7533 476.9932,-171.9109 478.9513,-165.1903"/>
</g>
<!-- CDEODamaschkestr11OUArbeitszimmerCNDama11LabIdentityBridgeCA -->
<g id="node3" class="node">
<title>CDEODamaschkestr11OUArbeitszimmerCNDama11LabIdentityBridgeCA</title>
<polygon fill="none" stroke="#000000" points="285.2864,-124 84.7136,-124 84.7136,-88 285.2864,-88 285.2864,-124"/>
<text text-anchor="middle" x="185" y="-101.8" font-family="Times,serif" font-size="14.00" fill="#000000">Dama11 Lab Identity Bridge CA</text>
</g>
<!-- CDEODamaschkestr11OUArbeitszimmerCNDama11LabRootCA&#45;&gt;CDEODamaschkestr11OUArbeitszimmerCNDama11LabIdentityBridgeCA -->
<g id="edge2" class="edge">
<title>CDEODamaschkestr11OUArbeitszimmerCNDama11LabRootCA-&gt;CDEODamaschkestr11OUArbeitszimmerCNDama11LabIdentityBridgeCA</title>
<path fill="none" stroke="#000000" d="M343.7771,-159.9243C314.6694,-150.0387 278.4334,-137.7321 247.9306,-127.3726"/>
<polygon fill="#000000" stroke="#000000" points="248.8392,-123.9849 238.2448,-124.0831 246.5881,-130.6131 248.8392,-123.9849"/>
</g>
<!-- CDEODamaschkestr11OUArbeitszimmerCNDama11LabIntermediaryCA -->
<g id="node4" class="node">
<title>CDEODamaschkestr11OUArbeitszimmerCNDama11LabIntermediaryCA</title>
<polygon fill="none" stroke="#000000" points="490.9347,-124 303.0653,-124 303.0653,-88 490.9347,-88 490.9347,-124"/>
<text text-anchor="middle" x="397" y="-101.8" font-family="Times,serif" font-size="14.00" fill="#000000">Dama11 Lab Intermediary CA</text>
</g>
<!-- CDEODamaschkestr11OUArbeitszimmerCNDama11LabRootCA&#45;&gt;CDEODamaschkestr11OUArbeitszimmerCNDama11LabIntermediaryCA -->
<g id="edge4" class="edge">
<title>CDEODamaschkestr11OUArbeitszimmerCNDama11LabRootCA-&gt;CDEODamaschkestr11OUArbeitszimmerCNDama11LabIntermediaryCA</title>
<path fill="none" stroke="#000000" d="M397,-159.8314C397,-152.131 397,-142.9743 397,-134.4166"/>
<polygon fill="#000000" stroke="#000000" points="400.5001,-134.4132 397,-124.4133 393.5001,-134.4133 400.5001,-134.4132"/>
</g>
<!-- CDEODamaschkestr11OUArbeitszimmerCNDama11LabSoftwareCA -->
<g id="node5" class="node">
<title>CDEODamaschkestr11OUArbeitszimmerCNDama11LabSoftwareCA</title>
<polygon fill="none" stroke="#000000" points="185.6671,-52 16.3329,-52 16.3329,-16 185.6671,-16 185.6671,-52"/>
<text text-anchor="middle" x="101" y="-29.8" font-family="Times,serif" font-size="14.00" fill="#000000">Dama 11 Lab Software CA</text>
</g>
<!-- CDEODamaschkestr11OUArbeitszimmerCNDama11LabIntermediaryCA&#45;&gt;CDEODamaschkestr11OUArbeitszimmerCNDama11LabSoftwareCA -->
<g id="edge5" class="edge">
<title>CDEODamaschkestr11OUArbeitszimmerCNDama11LabIntermediaryCA-&gt;CDEODamaschkestr11OUArbeitszimmerCNDama11LabSoftwareCA</title>
<path fill="none" stroke="#000000" d="M326.1092,-87.9737C315.3571,-85.2777 304.3887,-82.5491 294,-80 259.2871,-71.4824 221.0058,-62.3121 187.752,-54.4177"/>
<polygon fill="#000000" stroke="#000000" points="188.1405,-50.9128 177.6027,-52.0108 186.5252,-57.7239 188.1405,-50.9128"/>
</g>
<!-- CDEODamaschkestr11OUArbeitszimmerCNDama11LabComponentCA -->
<g id="node6" class="node">
<title>CDEODamaschkestr11OUArbeitszimmerCNDama11LabComponentCA</title>
<polygon fill="none" stroke="#000000" points="384.4698,-52 203.5302,-52 203.5302,-16 384.4698,-16 384.4698,-52"/>
<text text-anchor="middle" x="294" y="-29.8" font-family="Times,serif" font-size="14.00" fill="#000000">Dama11 Lab Component CA</text>
</g>
<!-- CDEODamaschkestr11OUArbeitszimmerCNDama11LabIntermediaryCA&#45;&gt;CDEODamaschkestr11OUArbeitszimmerCNDama11LabComponentCA -->
<g id="edge6" class="edge">
<title>CDEODamaschkestr11OUArbeitszimmerCNDama11LabIntermediaryCA-&gt;CDEODamaschkestr11OUArbeitszimmerCNDama11LabComponentCA</title>
<path fill="none" stroke="#000000" d="M371.0088,-87.8314C358.0784,-78.7927 342.2778,-67.7476 328.3617,-58.0198"/>
<polygon fill="#000000" stroke="#000000" points="330.1843,-55.0235 319.9829,-52.1628 326.1737,-60.7608 330.1843,-55.0235"/>
</g>
<!-- CDEODamaschkestr11OUArbeitszimmerCNDama11LabIdentityCA -->
<g id="node7" class="node">
<title>CDEODamaschkestr11OUArbeitszimmerCNDama11LabIdentityCA</title>
<polygon fill="none" stroke="#000000" points="561.1841,-52 402.8159,-52 402.8159,-16 561.1841,-16 561.1841,-52"/>
<text text-anchor="middle" x="482" y="-29.8" font-family="Times,serif" font-size="14.00" fill="#000000">Dama11 Lab Identity CA</text>
</g>
<!-- CDEODamaschkestr11OUArbeitszimmerCNDama11LabIntermediaryCA&#45;&gt;CDEODamaschkestr11OUArbeitszimmerCNDama11LabIdentityCA -->
<g id="edge7" class="edge">
<title>CDEODamaschkestr11OUArbeitszimmerCNDama11LabIntermediaryCA-&gt;CDEODamaschkestr11OUArbeitszimmerCNDama11LabIdentityCA</title>
<path fill="none" stroke="#000000" d="M418.4491,-87.8314C428.8178,-79.0485 441.4229,-68.3712 452.6646,-58.8489"/>
<polygon fill="#000000" stroke="#000000" points="455.1895,-61.297 460.5578,-52.1628 450.6651,-55.9556 455.1895,-61.297"/>
</g>
</g>
</svg>